<?xml version="1.0" encoding="utf-8"?>
<!-- Generator: Adobe Illustrator 24.2.1, SVG Export Plug-In . SVG Version: 6.00 Build 0)  -->
<svg version="1.1" id="Capa_1" xmlns="http://www.w3.org/2000/svg" xmlns:xlink="http://www.w3.org/1999/xlink" x="0px" y="0px"
	 viewBox="0 0 512 512" style="enable-background:new 0 0 512 512;" xml:space="preserve">
<style type="text/css">
	.st0{fill:#0F0F0F;}
	.st1{fill:#E7523C;}
</style>
<path id="XMLID_1329_" class="st0" d="M426.5,283.9l-76.4-119.8c10.8-5.7,18.2-17.1,18.2-30.1c0-14.3-8.9-26.6-21.4-31.6l23.2-81
	c1-3.5,0-7.3-2.5-9.8c-15.4-15.4-40.5-15.4-55.9,0c-3.7,3.7-8.6,5.7-13.8,5.7c-5.2,0-10.1-2-13.8-5.7l0,0
	c-15.4-15.4-40.4-15.4-55.8-0.1l-0.3,0.3c-7.6,7.6-20,7.5-27.5,0l-0.1-0.1c-15.4-15.4-40.5-15.4-55.9,0c-2.6,2.6-3.5,6.3-2.5,9.8
	l23.2,80.9c-12.6,5-21.5,17.3-21.5,31.6c0,13.1,7.4,24.4,18.2,30.1L85.5,283.9C55.9,330.3,54,386.8,80.4,435s75.1,77,130,77h91
	c55,0,103.6-28.8,130-77C458,386.8,456.1,330.3,426.5,283.9L426.5,283.9z M186.2,25.8L186.2,25.8c15.4,15.4,40.4,15.5,55.9,0.2
	l0.3-0.3c7.6-7.6,20-7.5,27.6,0.1l0,0c15.4,15.4,40.5,15.4,55.9,0c6.3-6.3,15.8-7.4,23.2-3.3L326.8,100H185.2L163,22.4
	C170.4,18.4,179.9,19.5,186.2,25.8L186.2,25.8z M414,425.4c-22.9,41.7-64.9,66.6-112.5,66.6h-91c-47.6,0-89.6-24.9-112.5-66.6
	s-21.3-90.6,4.3-130.7L183.1,168H211c5.5,0,10-4.5,10-10s-4.5-10-10-10h-33.3c-7.7,0-14-6.3-14-14s6.3-14,14-14l0,0h156.6
	c7.7,0,14,6.3,14,14s-6.3,14-14,14H301c-5.5,0-10,4.5-10,10s4.5,10,10,10h27.9l80.8,126.7C435.3,334.8,436.9,383.7,414,425.4
	L414,425.4z"/>
<path id="XMLID_1343_" d="M256,168c2.6,0,5.2-1.1,7.1-2.9s2.9-4.4,2.9-7.1s-1.1-5.2-2.9-7.1c-1.9-1.9-4.4-2.9-7.1-2.9
	s-5.2,1.1-7.1,2.9c-1.9,1.9-2.9,4.4-2.9,7.1s1.1,5.2,2.9,7.1C250.8,166.9,253.4,168,256,168L256,168z"/>
<g>
	<path class="st1" d="M289.1,412.4c11.3,0,20.8-1,28.3-3.1l1.1,7.9c0,8.7-1.6,15.2-4.8,19.5c-1.1,1.1-9.3,2-24.4,2.5l-7.4,0.3
		c-28.5,0-49.1-5.5-61.6-16.4c-12.6-11-20.1-27.9-22.5-51h-22.4c0-8.7,2.4-15.4,7.1-20.1h13.9v-18.7h-21c0-8.7,2.4-15.4,7.1-20.1
		h15.3c2.8-22.8,10.5-39.8,23.1-50.8s32.9-16.6,61-16.6c20,0.8,30.6,1.7,31.7,2.8c3.2,3,4.8,9.5,4.8,19.5c0,3.8-0.4,6.4-1.1,7.9
		c-5.1-2.1-14.5-3.1-28.3-3.1c-20,0-34.1,3.1-42.3,9.2s-13.3,16.5-15.2,31h56.6c0,8.5-2.4,15.2-7.1,20.1h-51v18.7h58.1
		c0,8.5-2.4,15.2-7.1,20.1h-49.6c1.9,14.5,6.9,24.9,15.2,31C254.9,409.4,269,412.4,289.1,412.4z"/>
</g>
</svg>
