<?xml version="1.0" encoding="utf-8"?>
<!-- Generator: Adobe Illustrator 24.2.1, SVG Export Plug-In . SVG Version: 6.00 Build 0)  -->
<svg version="1.1" id="Layer_1" xmlns:svgjs="http://svgjs.com/svgjs"
	 xmlns="http://www.w3.org/2000/svg" xmlns:xlink="http://www.w3.org/1999/xlink" x="0px" y="0px" viewBox="0 0 512 512"
	 style="enable-background:new 0 0 512 512;" xml:space="preserve">
<style type="text/css">
	.st0{fill:#E23D3D;}
</style>
<g>
	<path class="st0" d="M454.7,329.3h-47c-27.2,0-49.4-22.2-49.4-49.4l0,0c0-5.4,4.4-9.8,9.8-9.8h126.3c5.4,0,9.8,4.4,9.8,9.8l0,0
		C504.2,307,481.9,329.3,454.7,329.3z"/>
	<path class="st0" d="M103.6,329.3h-47c-27.2,0-49.4-22.2-49.4-49.4l0,0c0-5.4,4.4-9.8,9.8-9.8h126.3c5.4,0,9.8,4.4,9.8,9.8l0,0
		C153.1,307,130.8,329.3,103.6,329.3z"/>
	<path class="st0" d="M379.1,279.8c0-5.4,4.4-9.8,9.8-9.8h-20.8c-5.4,0-9.8,4.4-9.8,9.8c0,27.2,22.2,49.4,49.4,49.4h20.8
		C401.3,329.3,379.1,307,379.1,279.8z"/>
	<path class="st0" d="M28,279.8c0-5.4,4.4-9.8,9.8-9.8H17c-5.4,0-9.8,4.4-9.8,9.8c0,27.2,22.2,49.4,49.4,49.4h20.8
		C50.2,329.3,28,307,28,279.8z"/>
	<path d="M504.5,262.9h-11.3l-46.7-107.8c4.7-4.1,7.6-10.2,7.6-16.9c0-12.4-10.1-22.5-22.5-22.5c-6.4,0-12.1,2.7-16.2,6.9
		c-36.2-16.5-74.4-27.2-113.9-31.9c-2.5-15.1-12-27.8-25.1-34.6V41.3c0-10.4-8.5-18.9-18.9-18.9h-6.6c-10.4,0-18.9,8.5-18.9,18.9V56
		c-13.1,6.9-22.7,19.7-25.1,34.8c-38.4,4.8-75.7,15.2-111,31.1c-4-3.9-9.5-6.2-15.5-6.2c-12.4,0-22.5,10.1-22.5,22.5
		c0,6.7,2.9,12.7,7.6,16.9L18.8,262.9H7.5c-4.1,0-7.5,3.4-7.5,7.5v9.8c0,31.4,25.5,56.9,56.9,56.9h47c31.4,0,56.9-25.5,56.9-56.9
		v-9.8c0-4.1-3.4-7.5-7.5-7.5h-11.3L95.4,155.1c2.7-2.4,4.8-5.4,6.1-8.7h122.7v231.1h-4.6c-29.3,0-56.9,22.6-56.9,59.4
		c-9.4,1.3-16.7,9.5-16.7,19.3v13.9c0,10.8,8.7,19.5,19.5,19.5h71.3c4.1,0,7.5-3.4,7.5-7.5s-3.4-7.5-7.5-7.5h-71.3
		c-2.4,0-4.5-2.1-4.5-4.5v-13.9c0-2.4,2.1-4.5,4.5-4.5c2.4,0,175.2,0,177.7,0c2.4,0,4.5,2.1,4.5,4.5v13.9c0,2.4-2.1,4.5-4.5,4.5
		h-71.3c-4.1,0-7.5,3.4-7.5,7.5s3.4,7.5,7.5,7.5H343c10.8,0,19.5-8.7,19.5-19.5v-13.9c0-9.8-7.3-17.9-16.7-19.3
		c0-36.5-27.4-59.4-56.9-59.4h-4.6v-89.6c0-4.1-3.4-7.5-7.5-7.5s-7.5,3.4-7.5,7.5v89.6h-30.1V143.9c9.8,3.3,20.3,3.3,30.1,0v108.9
		c0,4.1,3.4,7.5,7.5,7.5s7.5-3.4,7.5-7.5V146.3h126.3c1.3,3.4,3.4,6.4,6.1,8.7l-46.7,107.8h-11.3c-4.1,0-7.5,3.4-7.5,7.5v9.8
		c0,31.4,25.5,56.9,56.9,56.9h47c31.4,0,56.9-25.5,56.9-56.9v-9.8C512,266.2,508.6,262.9,504.5,262.9z M288.9,392.5
		c21.5,0,41.9,16.4,41.9,44.2H177.6c0-27.8,20.5-44.2,41.9-44.2C226.5,392.5,281.9,392.5,288.9,392.5z M431.6,130.7
		c4.2,0,7.5,3.4,7.5,7.5c0,4.2-3.5,7.5-7.5,7.5c-3.9,0-7.3-3-7.5-7.1c0-0.1,0-0.1,0-0.2C423.9,134.2,427.3,130.7,431.6,130.7z
		 M247,51.1v-9.8c0-2.1,1.7-3.9,3.9-3.9h6.6c2.1,0,3.9,1.7,3.9,3.9v9.8c-2.2-0.3-4.9-0.5-7.2-0.5C252,50.6,249.3,50.7,247,51.1z
		 M243.5,67.4c21.5-7.5,43.6,8.7,43.6,31.1c0,18.2-14.8,32.9-32.9,32.9c-18.4,0-33.3-15.1-32.9-33.6c0,0,0,0,0-0.1
		C221.7,83.7,230.8,71.8,243.5,67.4z M80.4,130.7c4.2,0,7.7,3.4,7.5,7.9c0,0.1,0,0.1,0,0.2c-0.3,4.1-3.7,7.1-7.5,7.1
		c-4.1,0-7.5-3.3-7.5-7.5C72.9,134,76.3,130.7,80.4,130.7z M103.9,322.1h-47c-21.5,0-41.9-16.4-41.9-44.2c4.4,0,126.7,0,130.9,0
		C145.9,305.7,125.4,322.1,103.9,322.1z M81.5,160.7l44.2,102.1H35.2l44.2-102.1C80.1,160.8,80.9,160.7,81.5,160.7z M111.9,131.3
		c30.4-12.7,62.3-21.2,95-25.4c1.5,9.3,5.7,18.2,12.5,25.4H111.9z M289,131.3c6.8-7.2,11.1-16.2,12.5-25.6
		c33.2,4.2,65.5,12.7,96.4,25.6H289z M430.5,160.7C430.5,160.7,430.5,160.7,430.5,160.7c0.7,0,1.4,0,2.1,0l44.2,102.1h-90.6
		L430.5,160.7z M455.1,322.1h-47c-21.5,0-41.9-16.4-41.9-44.2c4.4,0,126.7,0,130.9,0C497,305.7,476.5,322.1,455.1,322.1z"/>
</g>
</svg>
