<svg xmlns="http://www.w3.org/2000/svg" viewBox="0 0 300.78 173.11"><defs><style>.cls-1{fill:#d8d8d8;}.cls-2{fill:#fff;}.cls-3{fill:#c62e2e;}.cls-4{fill:#bc1e1e;}.cls-5{fill:#e23d3d;}</style></defs><g id="Calque_2" data-name="Calque 2"><g id="_2_-_4_-_2" data-name="2 - 4 - 2"><g id="chapeau"><path class="cls-1" d="M298.9,73,155.84,141.62a12.89,12.89,0,0,1-11.18,0L1.87,73a3.3,3.3,0,0,1,0-6L144.85,1.18a13,13,0,0,1,10.8,0L298.85,67A3.3,3.3,0,0,1,298.9,73Z"/><path class="cls-2" d="M229.73,137.78H71.05l6.14-50.43L77.84,82a13.55,13.55,0,0,1,1-3.77c0-.07,0-.13.08-.19C86.25,61.45,115.6,49,150.68,49s64.43,12.44,71.76,29.07v0a13.45,13.45,0,0,1,1,4l.65,6Z"/><ellipse class="cls-1" cx="150.39" cy="137.94" rx="79.34" ry="35.16"/><path class="cls-3" d="M17.51,168.54a4.14,4.14,0,0,1-2-5.52l12.77-26.9a4.14,4.14,0,0,1,7.49,3.55L23,166.58A4.15,4.15,0,0,1,17.51,168.54Z"/><path class="cls-3" d="M41.09,166.58,28.32,139.67a4.14,4.14,0,1,1,7.49-3.55L48.58,163a4.15,4.15,0,0,1-7.49,3.56Z"/><path class="cls-3" d="M41,49l-4.77,2.2v68.25c0,1.84-1.86,3.33-4.15,3.33s-4.15-1.49-4.15-3.33V52.34c0-1.83,1.86-3.33,4.15-3.33Z"/><path class="cls-4" d="M32.06,138a4.14,4.14,0,0,1-4.14-4.15V165a4.15,4.15,0,1,0,8.29,0V133.87A4.15,4.15,0,0,1,32.06,138Z"/><path class="cls-5" d="M32.06,173.11A4.14,4.14,0,0,1,27.92,169V137.89a4.15,4.15,0,0,1,8.29,0V169A4.15,4.15,0,0,1,32.06,173.11Z"/><circle class="cls-5" cx="32.06" cy="127.45" r="10.44"/><path class="cls-3" d="M30.66,123.3a10.37,10.37,0,0,1,2.1-6.27c-.23,0-.46,0-.7,0a10.45,10.45,0,1,0,8.35,16.72A10.45,10.45,0,0,1,30.66,123.3Z"/><path class="cls-3" d="M38.72,143.49H25.4a4.15,4.15,0,1,1,0-8.29H38.72a4.15,4.15,0,1,1,0,8.29Z"/></g></g></g></svg>