<?xml version="1.0" encoding="utf-8"?>
<!-- Generator: Adobe Illustrator 24.2.1, SVG Export Plug-In . SVG Version: 6.00 Build 0)  -->
<svg version="1.1" id="Capa_1" xmlns="http://www.w3.org/2000/svg" xmlns:xlink="http://www.w3.org/1999/xlink" x="0px" y="0px"
	 viewBox="0 0 512 512" style="enable-background:new 0 0 512 512;" xml:space="preserve">
<style type="text/css">
	.st0{fill:#E7523C;}
</style>
<path class="st0" d="M170.7,215.8v-1c0-47.1,38.2-85.3,85.3-85.3s85.3,38.2,85.3,85.3v1H170.7z"/>
<path d="M411.3,512c5.6,0,10.1-4.5,10.1-10.1v-33.7c0-13-20.3-13-20.3,0v23.5h-39.6V326.3c0-5.6-4.5-10.1-10.1-10.1h-55
	c-13,0-13,20.3,0,20.3h44.8v155.3H170.8V336.4h44.8c13,0,13-20.3,0-20.3h-54.9c-5.6,0-10.1,4.5-10.1,10.1v165.5H111V280.8h290.3
	v105.4c0,13,20.3,13,20.3,0V280.6c19.6-2,33.3-19.3,32.7-38.6c0-18.7-14.2-34.1-32.4-36.1V175c0-16.2-5.8-32.1-16.1-44.6
	c15.8-25.4-3.2-59.3-33-59.3c-21.4,0-38.8,17.4-38.8,38.8c0,28.6,31.6,47.8,57,34.3c6.8,8.7,10.6,19.6,10.6,30.7v30.7H351
	c-3.4-35.2-26-65-57.2-78.5c18.6-12.5,30.8-33.7,30.8-57.7c0-38.3-31.2-69.5-69.5-69.5s-69.5,31.2-69.5,69.5
	c0,24.3,12.5,45.7,31.5,58.1c-30.7,13.7-52.8,43.2-56.2,78.1h-50.1V175c0-11.1,3.8-22,10.6-30.7c25.4,13.5,57-5.7,57-34.3
	c0-21.4-17.4-38.8-38.8-38.8c-29.8,0-48.8,33.8-33,59.3c-10.3,12.5-16.1,28.4-16.1,44.6V206c-19.6,2-33.3,19.3-32.7,38.6
	c0,18.8,14.3,34.3,32.7,36.1v221.2c0,5.6,4.5,10.1,10.1,10.1H411.3L411.3,512z M372.6,128.5c-10.2,0-18.6-8.3-18.6-18.6
	s8.3-18.6,18.6-18.6s18.6,8.3,18.6,18.6S382.8,128.5,372.6,128.5z M139.7,91.4c10.2,0,18.6,8.3,18.6,18.6s-8.3,18.6-18.6,18.6
	c-10.2,0-18.6-8.3-18.6-18.6S129.4,91.4,139.7,91.4L139.7,91.4z M205.9,69.5c0-27.1,22.1-49.2,49.2-49.2s49.2,22.1,49.2,49.2
	s-22.1,49.2-49.2,49.2S205.9,96.6,205.9,69.5L205.9,69.5z M320.6,176.5c5.2,8.8,8.7,18.7,10,29.2H181.4c1.2-9.9,4.3-19.2,9-27.5
	c13.2-23.6,38.6-37.9,65.7-37.9l0,0C282.4,140.3,307.2,153.8,320.6,176.5z M94.2,260.5c-20.9,0-21.3-34.5,0-34.5h323.5
	c21.3,0,20.9,34.5,0,34.5H94.2z"/>
<path d="M264.4,320.6c-3.1-4.6-9.5-5.9-14.1-2.8s-5.8,9.5-2.8,14.1c3.1,4.6,9.5,5.9,14.1,2.8C266.2,331.6,267.5,325.2,264.4,320.6z"
	/>
<path d="M420.9,423c-2.1-5.1-8.2-7.6-13.2-5.5c-5.1,2.1-7.6,8.1-5.5,13.2s8.1,7.6,13.2,5.5C420.5,434.2,423,428.1,420.9,423z"/>
</svg>
