<?xml version="1.0" encoding="utf-8"?>
<!-- Generator: Adobe Illustrator 24.2.0, SVG Export Plug-In . SVG Version: 6.00 Build 0)  -->
<svg version="1.1" id="Capa_1" xmlns="http://www.w3.org/2000/svg" xmlns:xlink="http://www.w3.org/1999/xlink" x="0px" y="0px"
	 viewBox="0 0 512 512" style="enable-background:new 0 0 512 512;" xml:space="preserve">
<style type="text/css">
	.st0{fill:#E23D3D;}
</style>
<g>
	<path d="M398.3,0h-226c-4.1,0-7.5,3.4-7.5,7.5s3.4,7.5,7.5,7.5h226c8.6,0,15.7,7,15.7,15.7v355H120.2c-8.3,0-15.9,2.7-22.1,7.3
		V30.7c0-8.6,7-15.7,15.7-15.7h28.5c4.1,0,7.5-3.4,7.5-7.5S146.4,0,142.3,0h-28.5C96.8,0,83.1,13.8,83.1,30.7v424.3
		c0,20.4,16.6,37.1,37.1,37.1h123v7c0,4.1,2,8,5.3,10.4c3.3,2.4,7.5,3.2,11.5,2l19-5.8l19,5.8c3.9,1.2,8.2,0.5,11.5-2
		c3-2.3,5-5.8,5.2-9.6c0-0.3,0-0.6,0-0.9v-7h22.6c4.2,0,7.5-3.4,7.5-7.5c0-4.2-3.3-7.5-7.5-7.5h-22.6v-16.2h61.4
		c4.1,0,7.5-3.3,7.5-7.5c0-4.1-3.4-7.5-7.5-7.5H135.9c-4.1,0-7.5,3.4-7.5,7.5c0,4.2,3.4,7.5,7.5,7.5h107.3V477h-123
		c-12.2,0-22.1-9.9-22.1-22.1v-32.2c0-12.2,9.9-22.1,22.1-22.1h293.7v60.7c0,8.6-7,15.7-15.7,15.7h-30.9c-4.1,0-7.5,3.3-7.5,7.5
		c0,4.1,3.4,7.5,7.5,7.5h30.9c16.9,0,30.7-13.8,30.7-30.7V30.7C428.9,13.8,415.2,0,398.3,0z M299.7,460.8v35.5l-17-5.2
		c-1.3-0.4-2.5-0.6-3.8-0.6c-1.3,0-2.5,0.2-3.8,0.6l-17,5.2v-35.5H299.7z"/>
	<path d="M135.9,416.9c-4.1,0-7.5,3.4-7.5,7.5s3.4,7.5,7.5,7.5h240.2c4.1,0,7.5-3.4,7.5-7.5s-3.4-7.5-7.5-7.5H135.9z"/>
	<path class="st0" d="M214,53.8c0-0.1-0.1-0.1-0.1-0.2c-1.6-4-5.5-6.5-9.7-6.5h0c-4.3,0-8.1,2.6-9.7,6.5c0,0.1,0,0.1-0.1,0.2
		l-50.1,131.6c-1.5,3.9,0.5,8.2,4.3,9.7c3.9,1.5,8.2-0.5,9.7-4.3l10.6-28h70.2l10.5,27.9c1.5,3.9,5.8,5.8,9.7,4.4
		c3.9-1.5,5.8-5.8,4.4-9.7L214,53.8z M174.6,147.8l29.5-77.6l29.3,77.6H174.6z"/>
	<path class="st0" d="M279.9,147.5c0,24.4,19.8,44.2,44.2,44.2c11.2,0,21.4-4.2,29.2-11v8.4c0,4.1,3.4,7.5,7.5,7.5s7.5-3.4,7.5-7.5
		v-83.1c0-4.1-3.4-7.5-7.5-7.5s-7.5,3.4-7.5,7.5v8.4c-7.8-6.9-18-11-29.2-11C299.8,103.3,279.9,123.1,279.9,147.5L279.9,147.5z
		 M353.3,147.5c0,16.1-13.1,29.2-29.2,29.2c-16.1,0-29.2-13.1-29.2-29.2s13.1-29.2,29.2-29.2C340.2,118.3,353.3,131.4,353.3,147.5z"
		/>
	<path d="M316.3,308.7H195.7c-4.1,0-7.5,3.4-7.5,7.5s3.4,7.5,7.5,7.5h120.5c4.1,0,7.5-3.4,7.5-7.5S320.4,308.7,316.3,308.7z"/>
	<path d="M316.3,342.6H195.7c-4.1,0-7.5,3.4-7.5,7.5s3.4,7.5,7.5,7.5h120.5c4.1,0,7.5-3.4,7.5-7.5S320.4,342.6,316.3,342.6z"/>
	<path d="M370.1,47.7c4.1,0,7.5-3.4,7.5-7.5s-3.4-7.5-7.5-7.5h-29.3c-4.1,0-7.5,3.4-7.5,7.5s3.4,7.5,7.5,7.5H370.1z"/>
	<path d="M258.1,234c0,4.1,3.4,7.5,7.5,7.5H328c0.5,0,0.9,0.4,0.9,0.9v30.1c0,0.5-0.4,0.9-0.9,0.9H184c-0.5,0-0.9-0.4-0.9-0.9v-30.1
		c0-0.5,0.4-0.9,0.9-0.9h51.6c4.1,0,7.5-3.4,7.5-7.5s-3.4-7.5-7.5-7.5H184c-8.8,0-15.9,7.1-15.9,15.9v30.1c0,8.8,7.1,15.9,15.9,15.9
		H328c8.8,0,15.9-7.1,15.9-15.9v-30.1c0-8.8-7.1-15.9-15.9-15.9h-62.3C261.5,226.5,258.1,229.8,258.1,234L258.1,234z"/>
</g>
<path class="st0" d="M314.7,460.8v39.1c-0.3,3.8-2.2,7.3-5.2,9.6c-3.3,2.4-7.6,3.2-11.5,2l-19-5.8l-19,5.8c-4,1.2-8.3,0.4-11.5-2
	c-3.3-2.4-5.3-6.3-5.3-10.4v-7h0v-31.2h15v35.5l17-5.2c1.2-0.4,2.5-0.6,3.8-0.6c1.3,0,2.5,0.2,3.8,0.6l17,5.2v-35.5H314.7z"/>
</svg>
