<?xml version="1.0" encoding="utf-8"?>
<!-- Generator: Adobe Illustrator 24.2.1, SVG Export Plug-In . SVG Version: 6.00 Build 0)  -->
<svg version="1.1" id="Capa_1" xmlns="http://www.w3.org/2000/svg" xmlns:xlink="http://www.w3.org/1999/xlink" x="0px" y="0px"
	 viewBox="0 0 512 512" style="enable-background:new 0 0 512 512;" xml:space="preserve">
<style type="text/css">
	.st0{fill:#E7523C;}
	.st1{fill:#FFFFFF;}
	.st2{fill:#CE4229;}
	.st3{fill:#828282;}
</style>
<g>
	<path class="st0" d="M22.5,212.3L256,36.4l233.5,175.9L268.1,339.1c-7.5,4.3-16.7,4.3-24.2,0L22.5,212.3z"/>
</g>
<g>
	<path class="st1" d="M243.9,339.1L22.5,212.3v267.9c0,13.4,10.9,24.3,24.3,24.3h418.3c13.4,0,24.3-10.9,24.3-24.3V212.3
		L268.1,339.1C260.6,343.4,251.4,343.4,243.9,339.1L243.9,339.1z"/>
</g>
<g>
	<path class="st1" d="M429.5,246.6V15.8c0-4.6-3.7-8.3-8.3-8.3H90.8c-4.6,0-8.3,3.7-8.3,8.3v230.9l161.4,92.5
		c7.5,4.3,16.7,4.3,24.2,0L429.5,246.6z"/>
</g>
<g>
	<path class="st0" d="M350.8,164.7H161.1c-4.6,0-8.3-3.7-8.3-8.3V97.6c0-4.6,3.7-8.3,8.3-8.3h189.7c4.6,0,8.3,3.7,8.3,8.3v58.8
		C359.2,160.9,355.5,164.7,350.8,164.7z"/>
</g>
<g>
	<path class="st2" d="M350.2,164.7H161.8v70.1c0,7.2,5.8,13,13,13h162.4c7.2,0,13-5.8,13-13L350.2,164.7L350.2,164.7z"/>
</g>
<g>
	<path class="st3" d="M283.8,183.3H235c-3.4,0-6.1-2.7-6.1-6.1v-26.3c0-3.4,2.7-6.1,6.1-6.1h48.8c3.4,0,6.1,2.7,6.1,6.1v26.3
		C289.9,180.5,287.2,183.3,283.8,183.3z"/>
</g>
<g>
	<path d="M496.5,209.7c-0.5-1.3-1.4-2.5-2.5-3.4c0,0-57-42.9-57-42.9V15.8C437,7.1,429.9,0,421.2,0H90.8C82.1,0,75,7.1,75,15.8
		v147.6l-57,42.9c0,0,0,0,0,0c-1.8,1.4-3,3.6-3,6v267.9c0,17.5,14.3,31.8,31.8,31.8h58.3c4.1,0,7.5-3.4,7.5-7.5s-3.4-7.5-7.5-7.5
		H46.8c-9.3,0-16.8-7.5-16.8-16.8v-255c0,0,210.1,120.4,210.2,120.4c9.6,5.5,22,5.5,31.6,0c0,0,210.2-120.4,210.2-120.4v255
		c0,9.3-7.5,16.8-16.8,16.8H139.8c-4.1,0-7.5,3.4-7.5,7.5s3.4,7.5,7.5,7.5h325.4c17.5,0,31.8-14.3,31.8-31.8V212.3
		C497,211.4,496.8,210.5,496.5,209.7L496.5,209.7z M75,233.7l-38.8-22.3L75,182.2V233.7z M422,242.3l-157.7,90.3
		c-5.2,2.9-11.6,3-16.7,0L90,242.3V15.8c0-0.4,0.4-0.8,0.8-0.8h330.5c0.4,0,0.8,0.4,0.8,0.8L422,242.3L422,242.3z M437,233.7v-51.5
		l38.8,29.3L437,233.7z"/>
	<path d="M350.8,81.7h-51.7v-11c0-12.4-10.1-22.5-22.5-22.5h-41.3c-12.4,0-22.5,10.1-22.5,22.5v11h-51.7c-8.7,0-15.8,7.1-15.8,15.8
		v58.8c0,6.3,3.7,11.7,9,14.3v64.2c0,11.3,9.2,20.5,20.5,20.5h162.4c11.3,0,20.5-9.2,20.5-20.5v-64.2c5.3-2.6,9-8,9-14.3v-11.5
		c0-4.1-3.4-7.5-7.5-7.5s-7.5,3.4-7.5,7.5v11.5c0,0.5-0.4,0.9-0.9,0.9h-53.4v-6.3c0-7.5-6.1-13.6-13.6-13.6H235
		c-7.5,0-13.6,6.1-13.6,13.6v6.3h-60.3c-0.5,0-0.9-0.4-0.9-0.9V97.6c0-0.5,0.4-0.9,0.9-0.9h189.7c0.5,0,0.9,0.4,0.9,0.9v12.4
		c0,4.1,3.4,7.5,7.5,7.5s7.5-3.4,7.5-7.5V97.6C366.7,88.8,359.6,81.7,350.8,81.7z M236.4,152.3h46v23.5h-46L236.4,152.3z
		 M169.3,172.2h52.1v5c0,7.5,6.1,13.6,13.6,13.6h48.8c7.5,0,13.6-6.1,13.6-13.6v-5h45.3v62.6c0,3-2.5,5.5-5.5,5.5H174.8
		c-3,0-5.5-2.5-5.5-5.5L169.3,172.2L169.3,172.2z M284.1,81.7h-56.2v-11c0-4.1,3.4-7.5,7.5-7.5h41.3c4.1,0,7.5,3.4,7.5,7.5
		L284.1,81.7L284.1,81.7z"/>
</g>
</svg>
