<?xml version="1.0" encoding="utf-8"?>
<!-- Generator: Adobe Illustrator 24.2.1, SVG Export Plug-In . SVG Version: 6.00 Build 0)  -->
<svg version="1.1" id="Layer_1" xmlns="http://www.w3.org/2000/svg" xmlns:xlink="http://www.w3.org/1999/xlink" x="0px" y="0px"
	 viewBox="0 0 511 511" style="enable-background:new 0 0 511 511;" xml:space="preserve">
<style type="text/css">
	.st0{fill:#FDD7BD;}
	.st1{fill:#FAC5AA;}
	.st2{opacity:0.5;fill:#E7523C;}
	.st3{fill:#CE4229;}
</style>
<path class="st0" d="M117.2,165.8v209.5H23.8v-19c0-7.2-3.2-14.1-8.7-18.9l0,0c-5.5-4.7-8.6-11.6-8.6-18.9V182.2
	c0-7.6,6.2-13.8,13.8-13.8c1.8,0,3.6,0.4,5.1,1c1.8,0.7,3.3,1.7,4.6,3.1c2.5,2.5,4.1,6,4.1,9.8v-16.4c0-7.6,6.2-13.8,13.8-13.8
	c1.8,0,3.5,0.4,5.1,1c1.8,0.7,3.3,1.8,4.6,3.1c2.5,2.5,4.1,6,4.1,9.8v-12.1c0-7.6,6.2-13.8,13.8-13.8c1.8,0,3.5,0.4,5.1,1
	c1.8,0.7,3.3,1.7,4.7,3.1c2.5,2.5,4,6,4,9.8v12.1c0-7.6,6.2-13.8,13.8-13.8c3.8,0,7.3,1.5,9.8,4.1
	C115.7,158.5,117.2,162,117.2,165.8z"/>
<path class="st1" d="M117.2,199.1v110.8L81,308.7c-6.4-0.2-11.5-5.5-11.5-11.9c0-6.2,3.8-11.8,9.5-14.1l18-7.3
	c6.8-2.8,11.3-9.4,11.3-16.8V212C108.2,206.1,112,201,117.2,199.1z"/>
<path class="st0" d="M78.4,373.7v-70c0-6.2,3.8-11.8,9.5-14.1l18-7.3c6.8-2.8,11.3-9.4,11.3-16.8v-50.1c0-7.6,6.2-13.8,13.8-13.8
	s13.8,6.2,13.8,13.8v102.8c0,7.5-3.4,14.6-9.2,19.3c-5.8,4.7-9.2,11.8-9.2,19.3v18.6"/>
<g>
	<path class="st1" d="M34.2,182.2v60.5h-2c-3.7,0-6.7-3-6.7-6.7v-66.7c1.8,0.7,3.3,1.7,4.6,3.1C32.6,174.9,34.2,178.4,34.2,182.2z"
		/>
	<path class="st1" d="M61.8,165.8v76.9h-2c-3.7,0-6.7-3-6.7-6.7v-83c1.8,0.7,3.3,1.8,4.6,3.1C60.3,158.5,61.8,162,61.8,165.8z"/>
	<path class="st1" d="M89.5,153.8v88.9h-2c-3.7,0-6.7-3-6.7-6.7v-95.1c1.8,0.7,3.3,1.7,4.7,3.1C88,146.5,89.5,149.9,89.5,153.8z"/>
</g>
<path class="st0" d="M471.7,165.8v209.5h-93.4v-19c0-7.2-3.2-14.1-8.7-18.9l0,0c-5.5-4.7-8.6-11.6-8.6-18.9V182.2
	c0-7.6,6.2-13.8,13.8-13.8c1.8,0,3.6,0.4,5.1,1c1.8,0.7,3.3,1.7,4.6,3.1c2.5,2.5,4.1,6,4.1,9.8v-16.4c0-7.6,6.2-13.8,13.8-13.8
	c1.8,0,3.5,0.4,5.1,1c1.8,0.7,3.3,1.8,4.6,3.1c2.5,2.5,4.1,6,4.1,9.8v-12.1c0-7.6,6.2-13.8,13.8-13.8c1.8,0,3.5,0.4,5.1,1
	c1.8,0.7,3.3,1.7,4.7,3.1c2.5,2.5,4,6,4,9.8v12.1c0-7.6,6.2-13.8,13.8-13.8c3.8,0,7.3,1.5,9.8,4.1
	C470.1,158.5,471.7,162,471.7,165.8z"/>
<path class="st1" d="M471.7,199.1v110.8l-36.2-1.2c-6.4-0.2-11.5-5.5-11.5-11.9c0-6.2,3.8-11.8,9.5-14.1l18-7.3
	c6.8-2.8,11.3-9.4,11.3-16.8V212C462.7,206.1,466.4,201,471.7,199.1z"/>
<path class="st0" d="M432.8,373.7v-70c0-6.2,3.8-11.8,9.5-14.1l18-7.3c6.8-2.8,11.3-9.4,11.3-16.8v-50.1c0-7.6,6.2-13.8,13.8-13.8
	c7.6,0,13.8,6.2,13.8,13.8v102.8c0,7.5-3.4,14.6-9.2,19.3s-9.2,11.8-9.2,19.3v18.6"/>
<path class="st1" d="M388.6,182.2v60.5h-2c-3.7,0-6.7-3-6.7-6.7v-66.7c1.8,0.7,3.3,1.7,4.6,3.1C387.1,174.9,388.6,178.4,388.6,182.2
	z"/>
<path class="st1" d="M416.3,165.8v76.9h-2c-3.7,0-6.7-3-6.7-6.7v-83c1.8,0.7,3.3,1.8,4.6,3.1C414.7,158.5,416.3,162,416.3,165.8z"/>
<path class="st1" d="M444,153.8v88.9h-2c-3.7,0-6.7-3-6.7-6.7v-95.1c1.8,0.7,3.3,1.7,4.7,3.1C442.4,146.5,444,149.9,444,153.8z"/>
<path class="st0" d="M294.5,38.8v209.5h-93.4v-19c0-7.2-3.2-14.1-8.7-18.9l-0.1,0c-5.5-4.7-8.6-11.6-8.6-18.9V55.2
	c0-7.6,6.2-13.8,13.8-13.8c1.8,0,3.6,0.4,5.1,1c1.8,0.7,3.3,1.7,4.6,3.1c2.5,2.5,4.1,6,4.1,9.8V38.8c0-7.6,6.2-13.8,13.8-13.8
	c1.8,0,3.5,0.4,5.1,1c1.8,0.7,3.3,1.8,4.6,3.1c2.5,2.5,4.1,6,4.1,9.8V26.8c0-7.6,6.2-13.8,13.8-13.8c1.8,0,3.5,0.4,5.1,1
	c1.8,0.7,3.3,1.7,4.7,3.1c2.5,2.5,4,6,4,9.8v12.1c0-7.6,6.2-13.8,13.8-13.8c3.8,0,7.3,1.5,9.8,4.1C293,31.5,294.5,35,294.5,38.8z"/>
<path class="st1" d="M294.5,72.1v110.8l-36.2-1.2c-6.4-0.2-11.5-5.5-11.5-11.9c0-6.2,3.8-11.8,9.5-14.1l18-7.3
	c6.8-2.8,11.3-9.4,11.3-16.8V85C285.6,79.1,289.3,74.1,294.5,72.1z"/>
<path class="st0" d="M255.7,246.8v-70c0-6.2,3.8-11.8,9.5-14.1l18-7.3c6.8-2.8,11.3-9.4,11.3-16.8V88.4c0-7.6,6.2-13.8,13.8-13.8
	s13.8,6.2,13.8,13.8v102.8c0,7.5-3.4,14.6-9.2,19.3c-5.8,4.7-9.2,11.8-9.2,19.3v18.6"/>
<path class="st2" d="M325.2,259v238.6H183.8V259c0-5.9,4.8-10.7,10.7-10.7h119.9C320.4,248.3,325.2,253.1,325.2,259z"/>
<path class="st3" d="M325.2,259v48.5H183.8V259c0-5.9,4.8-10.7,10.7-10.7h119.9C320.4,248.3,325.2,253.1,325.2,259z"/>
<path class="st1" d="M211.5,55.2v60.5h-2c-3.7,0-6.7-3-6.7-6.7V42.3c1.8,0.7,3.3,1.7,4.6,3.1C210,47.9,211.5,51.4,211.5,55.2z"/>
<path class="st1" d="M239.2,38.8v76.9h-2c-3.7,0-6.7-3-6.7-6.7V26c1.8,0.7,3.3,1.8,4.6,3.1C237.6,31.5,239.2,35,239.2,38.8z"/>
<path class="st1" d="M266.9,26.8v88.9h-2c-3.7,0-6.7-3-6.7-6.7V13.9c1.8,0.7,3.3,1.7,4.7,3.1C265.3,19.5,266.9,23,266.9,26.8z"/>
<path d="M314.5,242.4h-3.1v-11.1c0-5.3,2.3-10.2,6.4-13.5c7.6-6.2,11.9-15.3,11.9-25.1V89.9c0-11.8-9.6-21.3-21.3-21.3
	c-2.2,0-4.4,0.3-6.4,1V40.4c0-11.8-9.6-21.3-21.3-21.3c-2.8,0-5.4,0.5-7.8,1.5C269.8,12.6,262.1,7,253,7c-9,0-16.7,5.6-19.8,13.6
	c-2.4-1-5.1-1.5-7.8-1.5c-10.4,0-19.1,7.5-21,17.5c-2.1-0.7-4.4-1.1-6.7-1.1c-11.8,0-21.3,9.6-21.3,21.3v79.9c0,4.1,3.3,7.5,7.5,7.5
	s7.5-3.3,7.5-7.5V56.7c0-3.5,2.9-6.4,6.4-6.4c3.5,0,6.4,2.9,6.4,6.4v59.4c0,4.1,3.3,7.5,7.5,7.5s7.5-3.3,7.5-7.5V40.4
	c0-3.5,2.9-6.4,6.4-6.4c3.5,0,6.4,2.9,6.4,6.4v75.8c0,4.1,3.3,7.5,7.5,7.5s7.5-3.3,7.5-7.5V28.3c0-3.5,2.9-6.4,6.4-6.4
	c3.5,0,6.4,2.9,6.4,6.4v87.8c0,4.1,3.3,7.5,7.5,7.5s7.5-3.3,7.5-7.5V40.4c0-3.5,2.9-6.4,6.4-6.4c3.5,0,6.4,2.9,6.4,6.4v99.7
	c0,4.3-2.6,8.2-6.6,9.8l-18,7.3c-8.6,3.5-14.2,11.8-14.2,21.1v6.7c0,4.1,3.3,7.5,7.5,7.5c4.1,0,7.5-3.3,7.5-7.5v-6.7
	c0-3.2,1.9-6,4.9-7.2l18-7.3c9.7-3.9,15.9-13.2,15.9-23.7V89.9c0-3.5,2.9-6.4,6.4-6.4c3.5,0,6.4,2.9,6.4,6.4v102.8
	c0,5.3-2.3,10.2-6.4,13.5c-7.6,6.2-11.9,15.3-11.9,25.1v11.1h-87.8v-11.5c0-9.4-4.1-18.4-11.3-24.6c-3.8-3.3-6-8.1-6-13.2v-23.3
	c0-4.1-3.3-7.5-7.5-7.5s-7.5,3.3-7.5,7.5v23.3c0,9.4,4.1,18.4,11.3,24.6c3.8,3.3,6,8.1,6,13.2v11.5c-9.6,0.4-17.3,8.4-17.3,18.1
	v237.1c0,4.1,3.3,7.5,7.5,7.5s7.5-3.3,7.5-7.5v-181h126.4v181c0,4.1,3.3,7.5,7.5,7.5c4.1,0,7.5-3.3,7.5-7.5V260.6
	C332.7,250.5,324.5,242.4,314.5,242.4z M191.3,301.6v-41.1c0-1.8,1.5-3.2,3.2-3.2h119.9c1.8,0,3.2,1.5,3.2,3.2v41.1H191.3z"/>
<path d="M491.8,367.8h-3.1v-11.1c0-5.3,2.3-10.2,6.4-13.5c7.6-6.2,11.9-15.3,11.9-25.1V215.4c0-11.8-9.6-21.3-21.3-21.3
	c-2.2,0-4.4,0.3-6.4,1v-29.2c0-11.8-9.6-21.3-21.3-21.3c-2.8,0-5.4,0.5-7.8,1.5c-3.1-7.9-10.8-13.6-19.8-13.6
	c-9,0-16.7,5.6-19.8,13.6c-2.4-1-5.1-1.5-7.8-1.5c-10.4,0-19.1,7.5-21,17.5c-2.1-0.7-4.4-1.1-6.7-1.1c-11.8,0-21.3,9.6-21.3,21.3
	v136.4c0,9.4,4.1,18.4,11.2,24.5c0,0,0.1,0.1,0.1,0.1c3.8,3.3,6,8.1,6,13.2v11.5c-9.6,0.4-17.3,8.4-17.3,18.1v111.6
	c0,4.1,3.3,7.5,7.5,7.5c4.1,0,7.5-3.3,7.5-7.5V442H495v55.6c0,4.1,3.3,7.5,7.5,7.5c4.1,0,7.5-3.3,7.5-7.5V386
	C510,376,501.8,367.8,491.8,367.8z M368.6,427.1V386c0-1.8,1.5-3.2,3.2-3.2h60c4.1,0,7.5-3.3,7.5-7.5c0-4.1-3.3-7.5-7.5-7.5H386
	v-11.5c0-9.4-4.1-18.4-11.2-24.5c0,0-0.1-0.1-0.1-0.1c-3.8-3.3-6.1-8.1-6.1-13.2V182.2c0-3.5,2.9-6.4,6.4-6.4c3.5,0,6.4,2.9,6.4,6.4
	v59.4c0,4.1,3.3,7.5,7.5,7.5c4.1,0,7.5-3.3,7.5-7.5v-75.8c0-3.5,2.9-6.4,6.4-6.4c3.5,0,6.4,2.9,6.4,6.4v75.8c0,4.1,3.3,7.5,7.5,7.5
	c4.1,0,7.5-3.3,7.5-7.5v-87.8c0-3.5,2.9-6.4,6.4-6.4c3.5,0,6.4,2.9,6.4,6.4v87.8c0,4.1,3.3,7.5,7.5,7.5c4.1,0,7.5-3.3,7.5-7.5v-75.8
	c0-3.5,2.9-6.4,6.4-6.4c3.5,0,6.4,2.9,6.4,6.4v99.7c0,4.3-2.6,8.2-6.6,9.8l-18,7.3c-8.6,3.5-14.2,11.8-14.2,21.1v6.7
	c0,4.1,3.3,7.5,7.5,7.5c4.1,0,7.5-3.3,7.5-7.5v-6.7c0-3.2,1.9-6,4.9-7.2l18-7.3c9.7-3.9,15.9-13.2,15.9-23.7v-50.1
	c0-3.5,2.9-6.4,6.4-6.4c3.5,0,6.4,2.9,6.4,6.4v102.8c0,5.2-2.3,10.2-6.4,13.5c-7.6,6.2-11.9,15.3-11.9,25.1v11.1h-10.3
	c-4.1,0-7.5,3.3-7.5,7.5c0,4.1,3.3,7.5,7.5,7.5h28.3c1.8,0,3.2,1.5,3.2,3.2v41.1H368.6z"/>
<path d="M137.1,367.8h-3.1v-11.1c0-5.3,2.3-10.2,6.4-13.5c7.6-6.2,11.9-15.3,11.9-25.1V215.4c0-11.8-9.6-21.3-21.3-21.3
	c-2.2,0-4.4,0.3-6.4,1v-29.2c0-11.8-9.6-21.3-21.3-21.3c-2.8,0-5.4,0.5-7.8,1.5c-3.1-7.9-10.8-13.6-19.8-13.6S59,138.1,55.8,146
	c-2.4-1-5.1-1.5-7.8-1.5c-10.4,0-19.1,7.5-21,17.5c-2.1-0.7-4.4-1.1-6.7-1.1C8.6,160.9-1,170.4-1,182.2v136.4
	c0,9.4,4.1,18.4,11.2,24.5c0,0,0.1,0.1,0.1,0.1c3.8,3.3,6.1,8.1,6.1,13.2v11.5C6.7,368.3-1,376.3-1,386v111.6c0,4.1,3.3,7.5,7.5,7.5
	s7.5-3.3,7.5-7.5V442h11.3c4.1,0,7.5-3.3,7.5-7.5c0-4.1-3.3-7.5-7.5-7.5H14V386c0-1.8,1.5-3.2,3.2-3.2h119.9c1.8,0,3.2,1.5,3.2,3.2
	v41.1H54.5c-4.1,0-7.5,3.3-7.5,7.5c0,4.1,3.3,7.5,7.5,7.5h85.9v55.6c0,4.1,3.3,7.5,7.5,7.5s7.5-3.3,7.5-7.5V386
	C155.3,376,147.2,367.8,137.1,367.8z M31.3,367.8v-11.5c0-9.4-4.1-18.4-11.2-24.5c0,0-0.1-0.1-0.1-0.1c-3.8-3.3-6.1-8.1-6.1-13.2
	V182.2c0-3.5,2.9-6.4,6.4-6.4c3.5,0,6.4,2.9,6.4,6.4v59.4c0,4.1,3.3,7.5,7.5,7.5s7.5-3.3,7.5-7.5v-75.8c0-3.5,2.9-6.4,6.4-6.4
	c3.5,0,6.4,2.9,6.4,6.4v75.8c0,4.1,3.3,7.5,7.5,7.5s7.5-3.3,7.5-7.5v-87.8c0-3.5,2.9-6.4,6.4-6.4c3.5,0,6.4,2.9,6.4,6.4v87.8
	c0,4.1,3.3,7.5,7.5,7.5s7.5-3.3,7.5-7.5v-75.8c0-3.5,2.9-6.4,6.4-6.4c3.5,0,6.4,2.9,6.4,6.4v99.7c0,4.3-2.6,8.2-6.6,9.8l-18,7.3
	c-8.6,3.5-14.2,11.8-14.2,21.1v6.7c0,4.1,3.3,7.5,7.5,7.5s7.5-3.3,7.5-7.5v-6.7c0-3.2,1.9-6,4.9-7.2l18-7.3
	c9.7-3.9,15.9-13.2,15.9-23.7v-50.1c0-3.5,2.9-6.4,6.4-6.4c3.5,0,6.4,2.9,6.4,6.4v102.8c0,5.2-2.3,10.2-6.4,13.5
	c-7.6,6.2-11.9,15.3-11.9,25.1v11.1H31.3z"/>
</svg>
