<svg xmlns="http://www.w3.org/2000/svg" viewBox="0 0 510.21 512"><defs><style>.cls-1{fill:#373737;}.cls-1,.cls-2,.cls-3,.cls-4{fill-rule:evenodd;}.cls-2{fill:#ffdcd5;}.cls-3{fill:#ce4229;}.cls-4{fill:#ffd0c7;}</style></defs><g id="Layer_2" data-name="Layer 2"><g id="Capa_1" data-name="Capa 1"><path class="cls-1" d="M385.33,494.18,493.27,386.37a23.55,23.55,0,0,0,0-33.25l-17.79-17.75a23.61,23.61,0,0,0-33.27,0l-.48.45-107,106.88-.45.48a23.54,23.54,0,0,0,0,33.23l17.8,17.77a23.35,23.35,0,0,0,6.09,4.39h21.08a23.86,23.86,0,0,0,6.09-4.39Z"/><path class="cls-2" d="M334.72,442.7l107-106.88-46.82-46.76C324.8,249.35,268,340.38,283.66,391.69Z"/><path class="cls-3" d="M129.18,498.57h21.09a23.86,23.86,0,0,0,6.09-4.39l17.8-17.77a23.54,23.54,0,0,0,0-33.23l-.48-.48-107-106.88-.45-.45a23.65,23.65,0,0,0-33.3,0L15.15,353.12a23.57,23.57,0,0,0,0,33.25L123.06,494.18A23.93,23.93,0,0,0,129.18,498.57Z"/><path class="cls-4" d="M301,382.83l66.08-66,27.83-27.8,8.76-8.74a24.85,24.85,0,1,0-35.17-35.13l8.82-8.83a24.85,24.85,0,1,0-35.17-35.12L351,192.4a24.85,24.85,0,0,0-35.17-35.12l8.84-8.8A24.82,24.82,0,0,0,303,106.42a24.59,24.59,0,0,0-13.6,6.9l-35.23,35.21,1.14,1.14.19.2A24.85,24.85,0,0,1,220.38,185a24.87,24.87,0,0,1-35.2,35.15A24.85,24.85,0,0,1,150,255.27a24.85,24.85,0,0,1-35.17,35.12l-1.33-1.33L66.67,335.82l107,106.88L218.39,398c12.67-13.1,42.34-1.64,65.27-6.34A33.21,33.21,0,0,0,301,382.84Z"/><path class="cls-2" d="M220.38,185a24.85,24.85,0,0,0,35.16-35.12l-.19-.2c-14.94-1.08-43.5-27-45.2-45.15A24.87,24.87,0,0,0,175,139.65l8.84,8.83Z"/><path class="cls-2" d="M185.18,220.14A24.87,24.87,0,0,0,220.38,185l-36.59-36.51a24.85,24.85,0,1,0-35.17,35.12l8.82,8.81Z"/><path class="cls-2" d="M150,255.27a24.85,24.85,0,0,0,35.17-35.13L157.44,192.4a24.87,24.87,0,0,0-35.17,35.16l17.65,17.63Z"/><path class="cls-2" d="M114.84,290.39A24.85,24.85,0,0,0,150,255.27l-10.09-10.08a24.86,24.86,0,1,0-35.19,35.13l8.78,8.74Z"/><path class="cls-2" d="M254.21,148.53l35.23-35.21a24.59,24.59,0,0,1,13.6-6.9L235,93.54c-13.43-2.55-26.16-2.63-24.85,11,1.7,18.17,30.26,44.07,45.2,45.15Z"/><path d="M254.21,65.06A10.07,10.07,0,0,0,264.28,55V10.07a10.07,10.07,0,1,0-20.14,0V55a10.07,10.07,0,0,0,10.07,10.07Z"/><path d="M500.39,346,482.6,328.24a33.73,33.73,0,0,0-39.91-5.69l-33.53-33.49,1.64-1.63a35,35,0,0,0,0-49.35,34.54,34.54,0,0,0-17.54-9.48,35.16,35.16,0,0,0,1.39-9.8,34.87,34.87,0,0,0-27.74-34.16,35.16,35.16,0,0,0,1.39-9.8,34.85,34.85,0,0,0-27.74-34.14,34.85,34.85,0,0,0-37.25-44.48L236.88,83.64c-10.14-1.92-22.79-3.19-30.78,4.1a20.86,20.86,0,0,0-1.52,1.57,35.05,35.05,0,0,0-36.75,8.08,34.7,34.7,0,0,0-10.2,24.69,35.16,35.16,0,0,0,1.39,9.8A34.9,34.9,0,0,0,131.28,166a35.38,35.38,0,0,0,1.39,9.83A34.92,34.92,0,0,0,111,229.72a34.9,34.9,0,0,0-13.41,57.73l1.63,1.62L65.72,322.54a33.69,33.69,0,0,0-38.1,6.6L9.82,346.9a33.64,33.64,0,0,0,0,47.51L32,416.6a10.07,10.07,0,1,0,14.23-14.25L24.05,380.16a13.51,13.51,0,0,1,0-19l17.8-17.75a13.49,13.49,0,0,1,16.43-2,10.69,10.69,0,0,0,1.26,1.55,10.28,10.28,0,0,0,2.9,2L164.53,446.89a10.07,10.07,0,0,0,2,2.92,9.94,9.94,0,0,0,2.84,2,13.48,13.48,0,0,1-.56,18.39L151,488a13.53,13.53,0,0,1-19,0l-22.22-22.22A10.07,10.07,0,1,0,95.54,480l22.23,22.23a33.7,33.7,0,0,0,47.49,0l17.8-17.77a33.66,33.66,0,0,0,4.71-41.59l37.74-37.69.12-.13c4.32-4.46,16.35-3.63,28-2.82,8.27.58,17.49,1.22,26.49.18l41.33,41.27a33.64,33.64,0,0,0,5.71,39.87L345,501.31a33.68,33.68,0,0,0,47.5,0L500.39,393.5a33.65,33.65,0,0,0,0-47.52ZM233.13,103.43l43.68,8.27-26.15,26.14A63.4,63.4,0,0,1,235,126.45c-8.32-8-14.28-17.15-14.82-22.89h0a7.42,7.42,0,0,1,0-1c1.31-.32,4.81-.68,13,.87Zm-51.06,8.22a14.85,14.85,0,0,1,18.79-1.79c3.27,13.7,14.95,26.12,20.21,31.15,3.9,3.73,16.4,14.9,29,18a14.78,14.78,0,0,1-22.59,18.88h0l-45.41-45.34a14.81,14.81,0,0,1,0-20.87Zm-26.32,43.94a14.86,14.86,0,0,1,20.93,0l36.57,36.5A14.8,14.8,0,0,1,192.3,213h0l-27.75-27.74-.13-.13-8.68-8.67a14.8,14.8,0,0,1,0-20.89Zm-26.36,43.94a14.91,14.91,0,0,1,20.86-.07l27.83,27.82a14.78,14.78,0,0,1-21,20.86L147,238.06h0l-17.64-17.63a14.8,14.8,0,0,1,0-20.9Zm-17.54,52.79a14.86,14.86,0,0,1,21,0l10.11,10.09a14.78,14.78,0,0,1-21,20.85L120.69,282l0-.05-.06-.05-8.72-8.7a14.78,14.78,0,0,1,0-20.88ZM317.08,366.77a10.07,10.07,0,0,0-14.24,0l-9,8.94c-8.52,8.52-23.94,7.45-38.86,6.41-16.2-1.13-33-2.29-43.8,8.84L174.13,428,81.36,335.39l32.83-32.77a34.92,34.92,0,0,0,53.16-29.79v-.26h.26a34.84,34.84,0,0,0,34.91-34.87v-.26h.26a34.78,34.78,0,0,0,34.91-35.14H238a34.93,34.93,0,0,0,29.81-53.1l28.78-28.76a14.67,14.67,0,0,1,7.56-4,8.49,8.49,0,0,0,.88-.14,14.76,14.76,0,0,1,12.54,25l-8.76,8.73-.09.08-10.09,10.08a10.07,10.07,0,0,0,14.23,14.25l8.8-8.79h0l1.33-1.33a14.84,14.84,0,0,1,20.9,0,14.78,14.78,0,0,1,0,20.88L335,194.12h0l-10.1,10.06a10.07,10.07,0,1,0,14.22,14.27l10.13-10.1a14.78,14.78,0,0,1,20.92,20.89l-17.57,17.58a10.07,10.07,0,1,0,14.25,14.23l8.61-8.61.15-.14a14.78,14.78,0,0,1,20.92,20.89l-8.75,8.74h0l-13.9,13.88a10.07,10.07,0,1,0,14.24,14.25l6.79-6.78,32.58,32.53-92.75,92.65-33.24-33.2a39.5,39.5,0,0,0,6.62-5.32l8.95-8.94a10.06,10.06,0,0,0,0-14.24Zm169.08,12.48L378.22,487.06a13.54,13.54,0,0,1-19,0l-17.8-17.78a13.47,13.47,0,0,1,0-19l108-107.81a13.53,13.53,0,0,1,19,0l17.79,17.74a13.51,13.51,0,0,1,0,19Z"/><path d="M120.48,56.57a10.07,10.07,0,1,0,14.23-14.26L98,5.69A10.07,10.07,0,1,0,83.79,19.94Z"/><path d="M380.83,59.51a10,10,0,0,0,7.11-2.94l36.67-36.63A10.07,10.07,0,1,0,410.38,5.69L373.71,42.32a10.07,10.07,0,0,0,7.12,17.19Z"/><path d="M61.93,433.2a10.08,10.08,0,0,0,.12,14.25l0,0a10,10,0,0,0,14.22-.13A10.08,10.08,0,0,0,61.93,433.2Z"/><path d="M341.71,352.27a10.07,10.07,0,1,0-4.52-19.07l-.06,0a10.06,10.06,0,0,0,4.58,19Z"/></g></g></svg>