<?xml version="1.0" encoding="utf-8"?>
<!-- Generator: Adobe Illustrator 24.2.1, SVG Export Plug-In . SVG Version: 6.00 Build 0)  -->
<svg version="1.1" id="Capa_1" xmlns="http://www.w3.org/2000/svg" xmlns:xlink="http://www.w3.org/1999/xlink" x="0px" y="0px"
	 viewBox="0 0 512 512" style="enable-background:new 0 0 512 512;" xml:space="preserve">
<style type="text/css">
	.st0{fill:#E7523C;}
	.st1{fill:#FFFFFF;}
	.st2{fill:#373737;}
	.st3{fill:#0F0F0F;}
</style>
<g>
	<path class="st0" d="M312.7,293.6H95.7V177.4c0-7.4,6-13.4,13.4-13.4h190.1c7.4,0,13.4,6,13.4,13.4V293.6z"/>
	<path class="st0" d="M299.3,163.9h-19.2c7.4,0,13.4,6,13.4,13.4v116.2h19.2V177.4C312.7,169.9,306.7,163.9,299.3,163.9L299.3,163.9
		z"/>
</g>
<g>
	<path class="st1" d="M175.8,220.8c5.3-5.3,5.3-13.9,0-19.2s-13.9-5.3-19.2,0l-12.5,12.5l19.2,19.2L175.8,220.8z"/>
	<path class="st1" d="M144.1,214.2l-12.5,12.5c-5.3,5.3-5.3,13.9,0,19.2c5.3,5.3,13.9,5.3,19.2,0l12.5-12.5L144.1,214.2z"/>
</g>
<path class="st2" d="M456.1,163.9h-113c-2.6,0-4.7-2.1-4.7-4.7v-15.6c0-2.6,2.1-4.7,4.7-4.7h113c2.6,0,4.7,2.1,4.7,4.7v15.6
	C460.8,161.8,458.7,163.9,456.1,163.9z"/>
<path class="st0" d="M453.5,249H345.7l8.4-85.1h90.9L453.5,249z"/>
<path class="st0" d="M470.4,419.3H328.9l8.4-85.1h124.6L470.4,419.3z"/>
<path class="st1" d="M33,309.5h342.3v195H33L33,309.5z"/>
<path class="st2" d="M395.4,283.6H13c-3.1,0-5.5,2.5-5.5,5.5V304c0,3.1,2.5,5.5,5.5,5.5h382.3c3.1,0,5.5-2.5,5.5-5.5v-14.8
	C400.9,286.1,398.4,283.6,395.4,283.6z"/>
<path d="M120.1,236.3c0,5.6,2.2,10.9,6.2,14.9c4.1,4.1,9.5,6.2,14.9,6.2c5.4,0,10.8-2.1,14.9-6.2c1.2-1.2-1.8,1.8,25.1-25.1
	c0,0,0,0,0,0c8.2-8.2,8.2-21.6,0-29.8c-8.2-8.2-21.6-8.2-29.8,0c-1.2,1.2,1.8-1.8-25.1,25.1C122.3,225.4,120.1,230.7,120.1,236.3z
	 M170.5,207c2.4,2.4,2.4,6.2,0,8.6l-7.2,7.2l-8.6-8.6l7.2-7.2C164.3,204.6,168.2,204.6,170.5,207z M136.9,232l7.2-7.2l8.6,8.6
	l-7.2,7.2c-2.4,2.4-6.2,2.4-8.6,0C134.5,238.2,134.5,234.4,136.9,232L136.9,232z"/>
<path d="M214.1,212.8h71.5c4.1,0,7.5-3.4,7.5-7.5s-3.4-7.5-7.5-7.5h-71.5c-4.1,0-7.5,3.4-7.5,7.5S209.9,212.8,214.1,212.8
	L214.1,212.8z"/>
<path d="M214.1,249.7h71.5c4.1,0,7.5-3.4,7.5-7.5s-3.4-7.5-7.5-7.5h-71.5c-4.1,0-7.5,3.4-7.5,7.5S209.9,249.7,214.1,249.7
	L214.1,249.7z"/>
<path class="st3" d="M504.5,497h-18.9l-2.1-20.8c-0.4-4.1-4.1-7.1-8.2-6.7c-4.1,0.4-7.1,4.1-6.7,8.2l1.9,19.3h-87.6v-70.2h80.7
	l2.1,20.8c0.4,3.9,3.6,6.8,7.5,6.8c0.2,0,0.5,0,0.7,0c4.1-0.4,7.1-4.1,6.7-8.2c-0.5-5.1-26.8-271.2-27.2-274.7h2.7
	c6.7,0,12.2-5.5,12.2-12.2v-15.6c0-6.7-5.5-12.2-12.2-12.2h-113c-6.7,0-12.2,5.5-12.2,12.2v15.6c0,6.7,5.5,12.2,12.2,12.2h2.8
	l-7.6,76.8c0,0,0,0.1,0,0.1l-2.7,27.7h-15.3v-98.7c0-11.5-9.4-20.9-20.9-20.9H157.6c-4.1,0-7.5,3.4-7.5,7.5s3.4,7.5,7.5,7.5h141.6
	c3.3,0,5.9,2.7,5.9,5.9v98.7H103.2v-98.7c0-3.3,2.7-5.9,5.9-5.9h18.5c4.1,0,7.5-3.4,7.5-7.5s-3.4-7.5-7.5-7.5h-18.5
	c-11.5,0-20.9,9.4-20.9,20.9v98.7H13c-7.2,0-13,5.8-13,13V304c0,7.2,5.8,13,13,13h12.5v75c0,4.1,3.4,7.5,7.5,7.5s7.5-3.4,7.5-7.5
	v-75h327.3v180h-80.1v-61.2c0-7.4-6-13.4-13.4-13.4H134c-7.4,0-13.4,6-13.4,13.4V497H40.5v-75c0-4.1-3.4-7.5-7.5-7.5
	s-7.5,3.4-7.5,7.5v75h-18c-4.1,0-7.5,3.4-7.5,7.5s3.4,7.5,7.5,7.5h497c4.1,0,7.5-3.4,7.5-7.5S508.6,497,504.5,497L504.5,497z
	 M382.9,411.8v-70.1h72.3l6.9,70.1L382.9,411.8z M445.2,241.5H354l6.9-70.1h77.3L445.2,241.5z M345.9,146.5h107.3v9.9H345.9V146.5z
	 M15,302v-10.9h378.4V302C372.2,302,36.7,302,15,302z M395.4,317c7.2,0,13-5.8,13-13v-14.8c0-7.2-5.9-13-13-13h-44.8l1.9-19.6h94.2
	l7,70.2h-70.8V317L395.4,317L395.4,317z M135.7,437.5h61V497h-61V437.5z M211.7,497v-59.5h61V497H211.7z"/>
<path d="M100.3,403.2c7,0,12.6-5.7,12.6-12.6v-42.5c0-7-5.7-12.6-12.6-12.6H69.3c-7,0-12.6,5.7-12.6,12.6v42.5
	c0,7,5.7,12.6,12.6,12.6H100.3z M71.7,350.4h26.2v37.8H71.7V350.4z"/>
<path d="M179.9,403.2c7,0,12.6-5.7,12.6-12.6v-42.5c0-7-5.7-12.6-12.6-12.6h-30.9c-7,0-12.6,5.7-12.6,12.6v42.5
	c0,7,5.7,12.6,12.6,12.6H179.9z M151.3,350.4h26.2v37.8h-26.2V350.4z"/>
<path d="M259.5,403.2c7,0,12.6-5.7,12.6-12.6v-42.5c0-7-5.7-12.6-12.6-12.6h-30.9c-7,0-12.6,5.7-12.6,12.6v42.5
	c0,7,5.7,12.6,12.6,12.6H259.5z M230.9,350.4h26.2v37.8h-26.2V350.4z"/>
<path d="M339.1,403.2c7,0,12.6-5.7,12.6-12.6v-42.5c0-7-5.7-12.6-12.6-12.6h-30.9c-7,0-12.6,5.7-12.6,12.6v42.5
	c0,7,5.7,12.6,12.6,12.6H339.1z M310.5,350.4h26.2v37.8h-26.2V350.4z"/>
<path d="M366.4,83c8.1,0,14.7,6.6,14.7,14.7v17.1c0,4.1,3.4,7.5,7.5,7.5s7.5-3.4,7.5-7.5V97.6c0-16.4-13.3-29.7-29.7-29.7
	c-8.1,0-14.7-6.6-14.7-14.7V7.5c0-4.1-3.4-7.5-7.5-7.5s-7.5,3.4-7.5,7.5v45.8C336.7,69.7,350,83,366.4,83z"/>
<path d="M410.8,103.5v11.2c0,4.1,3.4,7.5,7.5,7.5s7.5-3.4,7.5-7.5v-11.2c0-4.1,3.4-7.5,7.5-7.5h12.5c12.4,0,22.5-10.1,22.5-22.5V35
	c0-4.1-3.4-7.5-7.5-7.5s-7.5,3.4-7.5,7.5v38.5c0,4.1-3.4,7.5-7.5,7.5h-12.5C420.9,81,410.8,91.1,410.8,103.5z"/>
<path d="M415.4,73.4c4.1,0,7.5-3.4,7.5-7.5V7.5c0-4.1-3.4-7.5-7.5-7.5s-7.5,3.4-7.5,7.5v58.4C407.9,70.1,411.2,73.4,415.4,73.4z"/>
<path d="M376.2,55.5c4.1,0,7.5-3.4,7.5-7.5V30.4c0-4.1-3.4-7.5-7.5-7.5s-7.5,3.4-7.5,7.5V48C368.7,52.1,372,55.5,376.2,55.5z"/>
</svg>
